<?xml version="1.0" encoding="UTF-8"?>
<svg xmlns="http://www.w3.org/2000/svg" xmlns:xlink="http://www.w3.org/1999/xlink" width="117.371pt" height="88.028pt" viewBox="0 0 117.371 88.028" version="1.1">
<defs>
<clipPath id="clip1">
  <path d="M 0 27 L 117.371094 27 L 117.371094 32 L 0 32 Z M 0 27 "/>
</clipPath>
<clipPath id="clip2">
  <path d="M 0 55 L 117.371094 55 L 117.371094 60 L 0 60 Z M 0 55 "/>
</clipPath>
<clipPath id="clip3">
  <path d="M 0 84 L 117.371094 84 L 117.371094 88.027344 L 0 88.027344 Z M 0 84 "/>
</clipPath>
</defs>
<g id="surface1">
<path style="fill:none;stroke-width:1.99255;stroke-linecap:butt;stroke-linejoin:miter;stroke:rgb(0%,0%,0%);stroke-opacity:1;stroke-miterlimit:10;" d="M -0.0008125 -0.00009375 L 113.385906 -0.00009375 " transform="matrix(1,0,0,-1,1.993,0.996)"/>
<g clip-path="url(#clip1)" clip-rule="nonzero">
<path style="fill:none;stroke-width:3.9851;stroke-linecap:butt;stroke-linejoin:miter;stroke:rgb(0%,0%,0%);stroke-opacity:1;stroke-miterlimit:10;" d="M -0.0008125 -28.34775 L 113.385906 -28.34775 " transform="matrix(1,0,0,-1,1.993,0.996)"/>
</g>
<g clip-path="url(#clip2)" clip-rule="nonzero">
<path style="fill:none;stroke-width:3.9851;stroke-linecap:butt;stroke-linejoin:miter;stroke:rgb(0%,0%,0%);stroke-opacity:1;stroke-dasharray:2.98883,2.98883;stroke-miterlimit:10;" d="M -0.0008125 -56.695406 L 113.385906 -56.695406 " transform="matrix(1,0,0,-1,1.993,0.996)"/>
</g>
<g clip-path="url(#clip3)" clip-rule="nonzero">
<path style="fill:none;stroke-width:3.9851;stroke-linecap:butt;stroke-linejoin:miter;stroke:rgb(100%,0%,0%);stroke-opacity:1;stroke-dasharray:2.98883,2.98883;stroke-miterlimit:10;" d="M -0.0008125 -85.039156 L 113.385906 -85.039156 " transform="matrix(1,0,0,-1,1.993,0.996)"/>
</g>
</g>
</svg>
