<?xml version="1.0" encoding="UTF-8"?>
<svg xmlns="http://www.w3.org/2000/svg" xmlns:xlink="http://www.w3.org/1999/xlink" width="198.824pt" height="85.438pt" viewBox="0 0 198.824 85.438" version="1.1">
<defs>
<clipPath id="clip1">
  <path d="M 0 0 L 86 0 L 86 85.4375 L 0 85.4375 Z M 0 0 "/>
</clipPath>
<clipPath id="clip2">
  <path d="M 0 0 L 91 0 L 91 85.4375 L 0 85.4375 Z M 0 0 "/>
</clipPath>
<clipPath id="clip3">
  <path d="M 113 0 L 198.824219 0 L 198.824219 85.4375 L 113 85.4375 Z M 113 0 "/>
</clipPath>
<clipPath id="clip4">
  <path d="M 107 0 L 198.824219 0 L 198.824219 85.4375 L 107 85.4375 Z M 107 0 "/>
</clipPath>
</defs>
<g id="surface1">
<g clip-path="url(#clip1)" clip-rule="nonzero">
<path style=" stroke:none;fill-rule:nonzero;fill:rgb(100%,0%,0%);fill-opacity:1;" d="M 85.238281 42.71875 C 85.238281 19.234375 66.203125 0.199219 42.71875 0.199219 C 19.234375 0.199219 0.199219 19.234375 0.199219 42.71875 C 0.199219 66.203125 19.234375 85.238281 42.71875 85.238281 C 66.203125 85.238281 85.238281 66.203125 85.238281 42.71875 Z M 85.238281 42.71875 "/>
</g>
<g clip-path="url(#clip2)" clip-rule="nonzero">
<path style="fill:none;stroke-width:0.3985;stroke-linecap:butt;stroke-linejoin:miter;stroke:rgb(100%,0%,0%);stroke-opacity:1;stroke-miterlimit:10;" d="M 42.519281 0.00025 C 42.519281 23.484625 23.484125 42.519781 -0.00025 42.519781 C -23.484625 42.519781 -42.519781 23.484625 -42.519781 0.00025 C -42.519781 -23.484125 -23.484625 -42.519281 -0.00025 -42.519281 C 23.484125 -42.519281 42.519281 -23.484125 42.519281 0.00025 Z M 42.519281 0.00025 " transform="matrix(1,0,0,-1,42.719,42.719)"/>
</g>
<g clip-path="url(#clip3)" clip-rule="nonzero">
<path style=" stroke:none;fill-rule:nonzero;fill:rgb(100%,59.999084%,59.999084%);fill-opacity:1;" d="M 198.625 42.71875 C 198.625 19.234375 179.589844 0.199219 156.105469 0.199219 C 132.621094 0.199219 113.585938 19.234375 113.585938 42.71875 C 113.585938 66.203125 132.621094 85.238281 156.105469 85.238281 C 179.589844 85.238281 198.625 66.203125 198.625 42.71875 Z M 198.625 42.71875 "/>
</g>
<g clip-path="url(#clip4)" clip-rule="nonzero">
<path style="fill:none;stroke-width:0.3985;stroke-linecap:butt;stroke-linejoin:miter;stroke:rgb(100%,0%,0%);stroke-opacity:1;stroke-miterlimit:10;" d="M 155.906 0.00025 C 155.906 23.484625 136.870844 42.519781 113.386469 42.519781 C 89.902094 42.519781 70.866938 23.484625 70.866938 0.00025 C 70.866938 -23.484125 89.902094 -42.519281 113.386469 -42.519281 C 136.870844 -42.519281 155.906 -23.484125 155.906 0.00025 Z M 155.906 0.00025 " transform="matrix(1,0,0,-1,42.719,42.719)"/>
</g>
</g>
</svg>
