<?xml version="1.0" encoding="UTF-8"?>
<svg xmlns="http://www.w3.org/2000/svg" xmlns:xlink="http://www.w3.org/1999/xlink" width="117.703pt" height="148.373pt" viewBox="0 0 117.703 148.373" version="1.1">
<defs>
<clipPath id="clip1">
  <path d="M 5 87 L 117.703125 87 L 117.703125 90 L 5 90 Z M 5 87 "/>
</clipPath>
</defs>
<g id="surface1">
<path style="fill:none;stroke-width:0.99628;stroke-linecap:butt;stroke-linejoin:miter;stroke:rgb(0%,0%,0%);stroke-opacity:1;stroke-miterlimit:10;" d="M -0.0006875 -0.00096875 L 108.186813 -0.00096875 " transform="matrix(1,0,0,-1,3.321,31.667)"/>
<path style=" stroke:none;fill-rule:nonzero;fill:rgb(0%,0%,0%);fill-opacity:1;" d="M 116.707031 31.667969 C 115.167969 31.378906 112.664062 30.511719 110.929688 29.5 L 110.929688 33.832031 C 112.664062 32.824219 115.167969 31.957031 116.707031 31.667969 "/>
<path style="fill:none;stroke-width:1.99255;stroke-linecap:butt;stroke-linejoin:miter;stroke:rgb(0%,0%,0%);stroke-opacity:1;stroke-miterlimit:10;" d="M 7.889938 -28.348625 L 105.495406 -28.348625 " transform="matrix(1,0,0,-1,3.321,31.667)"/>
<path style=" stroke:none;fill-rule:nonzero;fill:rgb(0%,0%,0%);fill-opacity:1;" d="M 3.320312 60.015625 C 5.660156 60.453125 9.457031 61.765625 12.089844 63.300781 L 12.089844 56.726562 C 9.457031 58.261719 5.660156 59.574219 3.320312 60.015625 "/>
<path style=" stroke:none;fill-rule:nonzero;fill:rgb(0%,0%,0%);fill-opacity:1;" d="M 116.707031 60.015625 C 114.371094 59.574219 110.570312 58.261719 107.941406 56.726562 L 107.941406 63.300781 C 110.570312 61.765625 114.371094 60.453125 116.707031 60.015625 "/>
<g clip-path="url(#clip1)" clip-rule="nonzero">
<path style="fill:none;stroke-width:1.99255;stroke-linecap:butt;stroke-linejoin:miter;stroke:rgb(0%,0%,0%);stroke-opacity:1;stroke-dasharray:2.98883,2.98883;stroke-miterlimit:10;" d="M 3.050094 -56.692375 L 113.386031 -56.692375 " transform="matrix(1,0,0,-1,3.321,31.667)"/>
</g>
<path style="fill-rule:nonzero;fill:rgb(0%,0%,0%);fill-opacity:1;stroke-width:1.99255;stroke-linecap:butt;stroke-linejoin:miter;stroke:rgb(0%,0%,0%);stroke-opacity:1;stroke-miterlimit:10;" d="M -8.673369 3.893286 L 0.498506 -0.001245 L -8.673369 -3.89187 Z M -8.673369 3.893286 " transform="matrix(-1,0,0,1,6.3696,88.36062)"/>
<path style="fill:none;stroke-width:1.99255;stroke-linecap:butt;stroke-linejoin:miter;stroke:rgb(100%,0%,0%);stroke-opacity:1;stroke-dasharray:2.98883,2.98883;stroke-miterlimit:10;" d="M 1.944625 -85.040031 L 99.139938 -85.040031 " transform="matrix(1,0,0,-1,3.321,31.667)"/>
<path style="fill-rule:nonzero;fill:rgb(100%,0%,0%);fill-opacity:1;stroke-width:1.99255;stroke-linecap:butt;stroke-linejoin:round;stroke:rgb(100%,0%,0%);stroke-opacity:1;stroke-miterlimit:10;" d="M 0.947314 -0.00038875 L -5.677686 3.784768 L -12.302686 -0.00038875 L -5.677686 -3.785545 Z M 0.947314 -0.00038875 " transform="matrix(-1,0,0,1,5.26372,116.70742)"/>
<path style="fill:none;stroke-width:1.99255;stroke-linecap:butt;stroke-linejoin:round;stroke:rgb(100%,0%,0%);stroke-opacity:1;stroke-miterlimit:10;" d="M 13.249208 0.00038875 L 6.624208 3.785545 L -0.0007925 0.00038875 L 6.624208 -3.784768 Z M 13.249208 0.00038875 " transform="matrix(1,0,0,-1,102.46173,116.70742)"/>
</g>
</svg>
